<svg height="473pt" viewBox="-1 0 473 473.42592" width="473pt" xmlns="http://www.w3.org/2000/svg" xmlns:xlink="http://www.w3.org/1999/xlink"><linearGradient id="linear0" gradientUnits="userSpaceOnUse" x1=".114654" x2="472.114654" y1="236.689278" y2="236.689278"><stop offset="0" stop-color="#41dfd0"/><stop offset="1" stop-color="#ee83ef"/></linearGradient><path d="m128.113281 409.378906c8.839844 0 16 7.160156 16 16 0 8.835938-7.160156 16-16 16-8.835937 0-16-7.164062-16-16 0-8.839844 7.164063-16 16-16zm144 0c-8.835937 0-16 7.160156-16 16 0 8.835938 7.164063 16 16 16 8.839844 0 16-7.164062 16-16 0-8.839844-7.160156-16-16-16zm136 16c0 8.835938 7.164063 16 16 16 8.839844 0 16-7.164062 16-16 0-8.839844-7.160156-16-16-16-8.835937 0-16 7.160156-16 16zm-210.320312-253.679687c-1.914063-1.886719-4.644531-2.699219-7.277344-2.160157-.503906.085938-.988281.246094-1.441406.476563-.511719.179687-1 .421875-1.449219.722656-.414062.296875-.8125.617188-1.191406.960938-.738282.75-1.3125 1.648437-1.679688 2.636719-1.425781 3.351562-.410156 7.242187 2.46875 9.46875 2.882813 2.222656 6.902344 2.222656 9.785156 0 2.878907-2.226563 3.894532-6.117188 2.46875-9.46875-.386718-.976563-.957031-1.875-1.683593-2.636719zm32 0c-3.207031-2.960938-8.148438-2.960938-11.359375 0-.703125.777343-1.273438 1.667969-1.679688 2.636719-.851562 1.9375-.851562 4.144531 0 6.082031.410156.96875.976563 1.859375 1.679688 2.640625 2.703125 2.6875 6.925781 3.097656 10.09375.980468 3.167968-2.121093 4.402344-6.179687 2.949218-9.703124-.40625-.96875-.976562-1.859376-1.683593-2.636719zm26.320312 13.679687c2.679688.027344 5.1875-1.300781 6.671875-3.527344 1.484375-2.226562 1.742188-5.054687.691406-7.515624-.386718-.976563-.957031-1.875-1.683593-2.636719-2.296875-2.273438-5.738281-2.933594-8.71875-1.683594-2.007813.730469-3.59375 2.3125-4.320313 4.320313-.449218.949218-.667968 1.992187-.640625 3.042968-.019531 2.125.816407 4.175782 2.320313 5.679688s3.554687 2.339844 5.679687 2.320312zm-253.65625 138.34375 11.3125-11.3125-5.65625-5.65625c-3.121093-3.125-3.121093-8.1875 0-11.3125l45.257813-45.265625c3.125-3.121093 8.1875-3.121093 11.3125 0l5.65625 5.65625 14.3125-14.3125c-2.941406-4.871093-4.507813-10.449219-4.539063-16.140625-.0625-13.871094 8.820313-26.203125 21.996094-30.539062 13.175781-4.339844 27.644531.308594 35.832031 11.503906 8.191406 11.195312 8.234375 26.390625.109375 37.632812l17.816407 21.402344h60.246093v-16h-8c-4.417969 0-8-3.582031-8-8v-24h-32c-8.835937 0-16-7.164062-16-16v-48c0-8.839844 7.164063-16 16-16h112c8.839844 0 16 7.160156 16 16v48c0 8.835938-7.160156 16-16 16h-32v24c0 4.417969-3.582031 8-8 8h-8v16h56v-32c0-4.417968 3.582031-8 8-8h16v-24c0-4.417968 3.582031-8 8-8s8 3.582032 8 8v24h16c4.417969 0 8 3.582032 8 8v16l32-42.671875v-29.328125c0-4.417968 3.582031-8 8-8h32c4.417969 0 8 3.582032 8 8v24h16c4.417969 0 8 3.582032 8 8v32c0 4.417969-3.582031 8-8 8h-16v64h24c4.417969 0 8 3.582032 8 8v32c0 4.417969-3.582031 8-8 8h-24v16.71875c24.605469 4.160156 41.921875 26.476563 39.832031 51.34375-2.085937 24.863282-22.878906 43.984375-47.832031 43.984375s-45.742187-19.121093-47.832031-43.984375c-2.085938-24.867187 15.230469-47.183594 39.832031-51.34375v-14.113281l-40.941406 11.695313c-2.835937 10.414062-12.269531 17.652343-23.058594 17.699218-3.996093-.027344-7.925781-1.066406-11.414062-3.019531l-23.472657 18.777344c8.421876 23.410156-2.480468 49.371093-25.089843 59.75-22.609375 10.378906-49.402344 1.722656-61.667969-19.921875-12.261719-21.644532-5.914062-49.078125 14.609375-63.136719s48.394531-10.066406 64.148437 9.1875l20.671876-16.542969c-1.1875-2.886718-1.792969-5.976562-1.785157-9.09375 0-.671875.144531-1.304687.203125-1.960937l-20.515625-6.039063h-171.6875v16.671875c24.589844 4.15625 41.898438 26.453125 39.832031 51.304688-2.066406 24.851562-22.820312 43.984375-47.757812 44.023437-1.058594 0-2.113281 0-3.199219-.105468-24.242187-1.65625-43.421875-21.167969-44.664062-45.433594-1.242188-24.269532 15.84375-45.636719 39.789062-49.757813v-16.703125h-24c-4.417969 0-8-3.582031-8-8v-32c0-4.417968 3.582031-8 8-8h24v-40c0-4.417968 3.582031-8 8-8h6.9375l-9.335937-11.203125c-9.511719 4.667969-20.75 4.152344-29.792969-1.367187l-15.296875 15.367187c4.460938 9.140625 2.597656 20.105469-4.628906 27.257813l-33.945313 33.945312c-3.125 3.121094-8.1875 3.121094-11.3125 0l-5.65625-5.65625-11.3125 11.3125c-3.136719 3.03125-8.128906 2.988282-11.214843-.097656-3.085938-3.085938-3.128907-8.078125-.097657-11.214844zm301.65625 101.65625c0-17.675781-14.324219-32-32-32-17.671875 0-32 14.324219-32 32 0 17.671875 14.328125 32 32 32 17.675781 0 32-14.328125 32-32zm-50.664062-80-40.34375-11.882812c-7.027344 4.644531-16.007813 5.15625-23.519531 1.34375l-23.734376 10.539062zm-53.335938-24c4.417969 0 8-3.582031 8-8 0-4.417968-3.582031-8-8-8s-8 3.582032-8 8c0 4.417969 3.582031 8 8 8zm160 48c0-4.417968-3.582031-8-8-8s-8 3.582032-8 8c0 4.417969 3.582031 8 8 8s8-3.582031 8-8zm64 24c-17.671875 0-32 14.324219-32 32 0 17.671875 14.328125 32 32 32 17.675781 0 32-14.328125 32-32 0-17.675781-14.324219-32-32-32zm8-64v16h16v-16zm-32-128h16v-16h-16zm-40 64h24v-16h16v16h16v-24c0-4.417968 3.582031-8 8-8h16v-16h-44zm-56 0h32v-24h-32zm-72-48h-16v16h16zm8-16h40v-48h-112v48zm-104 139.695313 41.824219-18.570313c-4.199219-9.753906-1.515625-21.105468 6.613281-27.945312 8.125-6.835938 19.773438-7.539063 28.664063-1.730469 8.890625 5.8125 12.921875 16.761719 9.921875 26.949219l86.945312 25.601562h106.03125v-64h-280zm-16 4.304687v-16h-16v16zm10.074219 48.070313c-.710938-.070313-1.417969-.070313-2.121094-.070313-17.5625-.019531-31.894531 14.050782-32.203125 31.613282-.304687 17.558593 13.527344 32.121093 31.078125 32.71875 17.554688.597656 32.34375-12.996094 33.230469-30.535157.882813-17.542969-12.460937-32.550781-29.984375-33.726562zm-34.074219-168.070313c0 8.835938 7.164063 16 16 16 8.839844 0 16-7.164062 16-16 0-8.839844-7.160156-16-16-16-8.835937 0-16 7.160156-16 16zm-71.03125 75.71875 11.3125 11.3125 28.289063-28.289062c3.117187-3.121094 3.117187-8.179688 0-11.304688l-5.65625-5.65625zm375.03125 20.28125v-24h-16v16h-16v16h24c4.417969 0 8-3.582031 8-8zm-48 0v-24h-16v16h-16v16h24c4.417969 0 8-3.582031 8-8zm-48 0v-24h-16v16h-16v16h24c4.417969 0 8-3.582031 8-8zm-142.847656-282.546875c37.785156-31.585937 93.132813-30.257812 129.359375 3.105469l10.976562-11.640625c-42.15625-38.953125-106.6875-40.523437-150.695312-3.671875zm116.34375 14.097657c-29.089844-26.890626-73.628906-27.980469-104-2.542969l10.359375 12.199219c24.152344-20.175782 59.519531-19.328126 82.675781 1.984374zm-24 22.625c-16.007813-14.871094-40.597656-15.449219-57.285156-1.34375l10.398437 12.191406c10.574219-8.539063 25.765625-8.199219 35.953125.800781zm-37.496094 45.824218h16v-16h-16zm0 0" fill="url(#linear0)"/></svg>