<?xml version="1.0" encoding="UTF-8" standalone="no"?>
<svg
   xmlns:dc="http://purl.org/dc/elements/1.1/"
   xmlns:cc="http://creativecommons.org/ns#"
   xmlns:rdf="http://www.w3.org/1999/02/22-rdf-syntax-ns#"
   xmlns:svg="http://www.w3.org/2000/svg"
   xmlns="http://www.w3.org/2000/svg"
   version="1.1"
   id="svg2"
   viewBox="0 0 24 24"
   height="24"
   width="24">
  <metadata
     id="metadata12">
    <rdf:RDF>
      <cc:Work
         rdf:about="">
        <dc:format>image/svg+xml</dc:format>
        <dc:type
           rdf:resource="http://purl.org/dc/dcmitype/StillImage" />
        <dc:title></dc:title>
      </cc:Work>
    </rdf:RDF>
  </metadata>
  <defs
     id="defs10" />
  <path
     fill="none"
     id="path4"
     d="M0 0h24v24H0z" />
  <path
     style="fill:#ffffff;fill-opacity:1"
     id="path6"
     d="M 4,2 C 2.9,2 2,2.9 2,4 l 0,16 c 0,1.1 0.9,2 2,2 l 16,0 c 1.1,0 2,-0.9 2,-2 L 22,4 C 22,2.9 21.1,2 20,2 Z M 4,4 7,4 7,8 4,8 Z m 5,0 6,0 0,4 -6,0 z m 8,0 3,0 0,4 -3,0 z M 4,10 5,10 7,10 7.7285156,10 11,10 11,14 7.7285156,14 7,14 5,14 4,14 Z m 9,0 3,0 1,0 2,0 1,0 0,4 -1,0 -2,0 -1,0 -3,0 z m -9,6 3,0 0,4 -3,0 z m 5,0 6,0 0,4 -6,0 z m 8,0 3,0 0,4 -3,0 z" />
</svg>
